<svg width="77" height="60" viewBox="0 0 77 60" fill="none" xmlns="http://www.w3.org/2000/svg">
<path d="M41.028 10.3271C40.6542 8.41121 39.9065 6.68224 38.785 5.18691C37.6635 3.69159 36.1682 2.42991 34.299 1.4486C32.4299 0.467289 30.1402 0 27.4299 0H2.4299C1.72897 0 1.16822 0.233644 0.700934 0.747663C0.233645 1.26168 0 1.7757 0 2.38318V9.90654H9.90654H16.8224H26.9626C28.5514 9.90654 29.5327 10.7477 29.9533 12.3832C30.3271 13.972 30.0467 15.5607 29.0654 17.1495C28.8785 17.4299 28.4579 17.8505 27.8505 18.3178C27.243 18.785 26.5888 19.2523 25.8878 19.7663C25.1869 20.2804 24.4392 20.7477 23.7383 21.1682C23.0374 21.6355 22.4299 21.9626 22.0093 22.1963C20.514 23.0841 18.9252 24.0187 17.3364 24.9065L16.9159 25.1402C16.5888 25.3271 16.3084 25.4673 15.9813 25.6542C13.8318 26.8224 11.8224 27.8972 9.95327 28.8785V28.8318L0.140185 34.0654L0.186913 57.1495C0.186913 57.757 0.420558 58.271 0.841119 58.785C1.26168 59.299 1.82243 59.5327 2.52336 59.5327H7.57009C8.69158 59.5327 9.39252 59.2523 9.62616 58.6448C9.85981 58.0374 9.95327 57.3832 9.95327 56.6355V40.0467L29.4392 29.2523C30.1402 28.8785 30.9346 28.3645 31.9159 27.7103C32.8505 27.1028 33.972 26.3551 35.2804 25.514C36.9159 24.4392 38.2243 23.0374 39.2056 21.3551C40.1869 19.6729 40.8411 17.8972 41.1682 15.9813C41.4486 14.1121 41.4019 12.1963 41.028 10.3271Z" fill="#EB780F"/>
<path d="M40.5139 25.8879C40.5139 25.8879 66.1681 0.37384 66.6354 0.37384H68.598H73.5513C74.2522 0.37384 74.8597 0.607489 75.327 1.02805C75.841 1.49534 76.0747 2.05609 76.0747 2.75702C76.0747 3.45795 75.7943 4.06543 75.1868 4.53272L74.3457 5.51403L54.1121 25.4206L75.7008 55.3271L76.3083 56.1682C76.8691 56.8691 77.056 57.4766 76.869 58.0841C76.6821 58.6448 76.355 59.1589 75.7943 59.5327C75.327 59.8131 74.8597 60 74.3924 60H68.1307C67.6635 60 67.2896 59.9065 66.9625 59.7196C66.6354 59.5327 66.2616 59.2056 65.9345 58.6448L66.0279 58.785L46.8223 32.1495C45.7943 33.1308 41.6354 36.1215 40.5607 37.1028V57.5234C40.5607 59.1121 39.7195 59.9065 38.084 59.9065H33.084C31.542 59.9065 30.7943 59.1121 30.7943 57.5234L30.6541 32.8972L40.5139 25.8879Z" fill="#EB780F"/>
</svg>
